{"title":"Centurion.2010.CAM..X264.SDTeam.https://www.scenedemon.org","uid":5750176,"size":457890842,"categoryP":"video","categoryS":"movies","magnet":"?xt=urn:btih:7fda3b750d743bc5752292dfa62e122814048160&amp;dn=Centurion.2010.CAM..X264.SDTeam.https%3A%2F%2Fwww.scenedemon.org&amp;tr=udp%3A%2F%2Ftracker.openbittorrent.com%3A80&amp;tr=udp%3A%2F%2Fopen.demonii.com%3A1337&amp;tr=udp%3A%2F%2Ftracker.coppersurfer.tk%3A6969&amp;tr=udp%3A%2F%2Fexodus.desync.com%3A6969","seeders":0,"leechers":0,"uploader":"bg2k9","files":35,"time":1281362696,"description":"Language.....: English -(GREETZ TO THE GREATZ:\n[b][color=#FF0000] &lt;a href=&quot;\nhttp://www.seedboxworld.com(&quot; rel=&quot;nofollow&quot; target=&quot;_NEW&quot;&gt;\nhttp://www.seedboxworld.com(&lt;/a&gt; for your cheap fast seedbox needs )\n\n\nBadGirl2k9  \t \t \t\nUnDeaD \nalgpz500 \t\t\t\nvirusofsaten \t \t\t\nWICCYWOLF\t\nFoxyB \t\t\t \t\t\nJoker321[/color][/b]\n &lt;a href=&quot;\nhttp://www.imdb.com/title/tt1020558/&quot; rel=&quot;nofollow&quot; target=&quot;_NEW&quot;&gt;\nhttp://www.imdb.com/title/tt1020558/&lt;/a&gt;\n\n\nCenturion.2010.CAM..X264.SDTeam\n\nA splinter group of Roman soldiers fight for their lives behind enemy lines after their\n                     legion is decimated in a devastating guerrilla attack\n\n\nFormat                           : Matroska\nFile size                        : 437 MiB\nDuration                         : 1h 37mn\nOverall bit rate                 : 628 Kbps\n\nVideo\nID                               : 1\nFormat                           : AVC\nFormat/Info                      : Advanced Video Codec\nFormat profile                   : &lt;a class=&quot;__cf_email__&quot; href=&quot;/cdn-cgi/l/email-protection&quot; data-cfemail=&quot;5e163739361e126d706e&quot;&gt;[email&amp;#160;protected]&lt;/a&gt;&lt;script data-cfhash='f9e31' type=&quot;text/javascript&quot;&gt;\n/* &lt;![CDATA[ */!function(){try{var t=&quot;currentScript&quot;in document?document.currentScript:function(){for(var t=document.getElementsByTagName(&quot;script&quot;),e=t.length;e--;)if(t[e].getAttribute(&quot;data-cfhash&quot;))return t[e]}();if(t&amp;&amp;t.previousSibling){var e,r,n,i,c=t.previousSibling,a=c.getAttribute(&quot;data-cfemail&quot;);if(a){for(e=&quot;&quot;,r=parseInt(a.substr(0,2),16),n=2;a.length-n;n+=2)i=parseInt(a.substr(n,2),16)^r,e+=String.fromCharCode(i);e=document.createTextNode(e),c.parentNode.replaceChild(e,c)}t.parentNode.removeChild(t);}}catch(u){}}()/* ]]&gt; */&lt;/script&gt;\nFormat settings, CABAC           : Yes\nFormat settings, ReFrames        : 4 frames\nMuxing mode                      : Container profile=&lt;a class=&quot;__cf_email__&quot; href=&quot;/cdn-cgi/l/email-protection&quot; data-cfemail=&quot;50053e3b3e3f273e10637e60&quot;&gt;[email&amp;#160;protected]&lt;/a&gt;&lt;script data-cfhash='f9e31' type=&quot;text/javascript&quot;&gt;\n/* &lt;![CDATA[ */!function(){try{var t=&quot;currentScript&quot;in document?document.currentScript:function(){for(var t=document.getElementsByTagName(&quot;script&quot;),e=t.length;e--;)if(t[e].getAttribute(&quot;data-cfhash&quot;))return t[e]}();if(t&amp;&amp;t.previousSibling){var e,r,n,i,c=t.previousSibling,a=c.getAttribute(&quot;data-cfemail&quot;);if(a){for(e=&quot;&quot;,r=parseInt(a.substr(0,2),16),n=2;a.length-n;n+=2)i=parseInt(a.substr(n,2),16)^r,e+=String.fromCharCode(i);e=document.createTextNode(e),c.parentNode.replaceChild(e,c)}t.parentNode.removeChild(t);}}catch(u){}}()/* ]]&gt; */&lt;/script&gt;\nCodec ID                         : V_MPEG4/ISO/AVC\nDuration                         : 1h 37mn\nBit rate                         : 487 Kbps\nNominal bit rate                 : 500 Kbps\nWidth                            : 720 pixels\nHeight                           : 320 pixels\nDisplay aspect ratio             : 2.25:1\nFrame rate mode                  : Variable\nFrame rate                       : 23.976 fps\nResolution                       : 8 bits\nColorimetry                      : 4:2:0\nScan type                        : Progressive\nBits/(Pixel*Frame)               : 0.088\nStream size                      : 339 MiB (78%)\nWriting library                  : x264 core 104 r1677 19df41a\nAudio\nID                               : 2\nFormat                           : MPEG Audio\nFormat version                   : Version 1\nFormat profile                   : Layer 3\nCodec ID                         : A_MPEG/L3\nCodec ID/Hint                    : MP3\nDuration                         : 1h 37mn\nBit rate mode                    : Constant\nBit rate                         : 128 Kbps\nChannel(s)                       : 2 channels\nSampling rate                    : 48.0 KHz\nStream size                      : 89.0 MiB (20%)","torrent":{"xt":"urn:btih:7fda3b750d743bc5752292dfa62e122814048160","amp;dn":"Centurion.2010.CAM..X264.SDTeam.https%3A%2F%2Fwww.scenedemon.org","amp;tr":["udp%3A%2F%2Ftracker.openbittorrent.com%3A80","udp%3A%2F%2Fopen.demonii.com%3A1337","udp%3A%2F%2Ftracker.coppersurfer.tk%3A6969","udp%3A%2F%2Fexodus.desync.com%3A6969"],"infoHash":"7fda3b750d743bc5752292dfa62e122814048160","infoHashBuffer":{"type":"Buffer","data":[127,218,59,117,13,116,59,197,117,34,146,223,166,46,18,40,20,4,129,96]},"announce":[],"urlList":[]}}